<?xml version="1.0" encoding="utf-8"?>
<!-- Generator: Adobe Illustrator 16.0.0, SVG Export Plug-In . SVG Version: 6.00 Build 0)  -->
<!DOCTYPE svg PUBLIC "-//W3C//DTD SVG 1.1//EN" "http://www.w3.org/Graphics/SVG/1.1/DTD/svg11.dtd">
<svg version="1.1" id="Layer_1" xmlns="http://www.w3.org/2000/svg" xmlns:xlink="http://www.w3.org/1999/xlink" x="0px" y="0px"
	 width="256px" height="256px" viewBox="0 0 256 256" enable-background="new 0 0 256 256" xml:space="preserve">
<path fill-rule="evenodd" clip-rule="evenodd" fill="#010101" d="M82.79,168.25c-5.6,26.39-11.96,51.35-24.7,71.44
	c-3.87,6.1-8,13.49-14.69,16.69c-9.94-51.88,10.81-94.12,18.69-136.87c-9.59-23.47-4.18-55.82,17.36-61.42
	c18.33-4.77,27.58,8.73,26.04,26.7c-0.76,8.89-4.57,18.33-7.34,27.38c-5.61,18.33-11.28,38.48,7.34,46.06
	c15.69,6.39,31.18-3.9,38.06-12.02c19.36-22.9,27.15-76.44,6.68-101.48c-11.15-13.64-31.82-19.33-48.74-19.37
	c-39.83-0.07-68.59,27.8-72.1,60.76c-1.4,13.16,1,26.83,6.68,35.38c0.98,1.47,4.76,3.46,5.34,8.01c0.86,6.66-3.48,14.86-6.67,19.36
	C10.7,144.26-0.36,118.57,0.01,91.47C0.71,39.67,48.09-0.27,102.82,0c54.57,0.28,95.87,34.7,96.14,84.12
	c0.16,29.17-7.52,52.65-21.37,71.44c-13.62,18.46-46.99,40.13-78.11,26.04C92.5,178.43,89.44,174,82.79,168.25z"/>
<g>
</g>
<g>
</g>
<g>
</g>
<g>
</g>
<g>
</g>
<g>
</g>
</svg>
