<?xml version="1.0" encoding="utf-8"?>
<!-- Generator: Adobe Illustrator 16.0.0, SVG Export Plug-In . SVG Version: 6.00 Build 0)  -->
<!DOCTYPE svg PUBLIC "-//W3C//DTD SVG 1.1//EN" "http://www.w3.org/Graphics/SVG/1.1/DTD/svg11.dtd">
<svg version="1.1" id="Layer_1" xmlns="http://www.w3.org/2000/svg" xmlns:xlink="http://www.w3.org/1999/xlink" x="0px" y="0px"
	 width="256px" height="256px" viewBox="0 0 256 256" enable-background="new 0 0 256 256" xml:space="preserve">
<path fill="#010101" d="M244,0H12C5.37,0,0,5.37,0,12v232c0,6.63,5.37,12,12,12h232c6.63,0,12-5.37,12-12V12
	C256,5.37,250.63,0,244,0z M187.24,152.45c-10.47,14.2-36.14,30.88-60.09,20.03c-5.37-2.44-7.73-5.85-12.84-10.27
	c-4.31,20.3-9.21,39.5-19,54.96c-2.98,4.69-6.16,10.38-11.3,12.84c-7.65-39.91,8.31-72.41,14.38-105.29
	c-7.38-18.05-3.21-42.94,13.35-47.25c14.1-3.67,21.22,6.72,20.03,20.54c-0.59,6.84-3.52,14.1-5.65,21.06
	c-4.32,14.1-8.68,29.6,5.65,35.44c12.07,4.92,23.99-3,29.28-9.25c14.89-17.62,20.89-58.8,5.13-78.07
	c-8.58-10.49-24.48-14.87-37.49-14.9c-30.64-0.05-52.76,21.38-55.47,46.74c-1.08,10.13,0.77,20.64,5.14,27.22
	c0.75,1.13,3.66,2.66,4.11,6.16c0.66,5.13-2.68,11.43-5.13,14.89c-18.48-3.55-26.99-23.32-26.71-44.17
	c0.54-39.85,36.99-70.57,79.09-70.37c41.98,0.21,73.75,26.69,73.96,64.72C203.79,119.94,197.89,138,187.24,152.45z"/>
<g>
</g>
<g>
</g>
<g>
</g>
<g>
</g>
<g>
</g>
<g>
</g>
</svg>
