<?xml version="1.0" encoding="utf-8"?>
<!-- Generator: Adobe Illustrator 16.0.0, SVG Export Plug-In . SVG Version: 6.00 Build 0)  -->
<!DOCTYPE svg PUBLIC "-//W3C//DTD SVG 1.1//EN" "http://www.w3.org/Graphics/SVG/1.1/DTD/svg11.dtd">
<svg version="1.1" id="Layer_1" xmlns="http://www.w3.org/2000/svg" xmlns:xlink="http://www.w3.org/1999/xlink" x="0px" y="0px"
	 width="256px" height="256px" viewBox="0 0 256 256" enable-background="new 0 0 256 256" xml:space="preserve">
<path fill="#010101" d="M126.62,0C56.69,0,0,56.69,0,126.62c0,69.93,56.69,126.62,126.62,126.62c69.93,0,126.62-56.69,126.62-126.62
	C253.23,56.69,196.54,0,126.62,0z M180.75,153.79c-8.75,11.86-30.2,25.79-50.2,16.74c-4.49-2.04-6.46-4.89-10.73-8.58
	c-3.6,16.96-7.69,33-15.88,45.91c-2.48,3.92-5.14,8.67-9.44,10.73c-6.39-33.34,6.94-60.49,12.01-87.96
	c-6.16-15.08-2.68-35.88,11.15-39.47c11.78-3.06,17.73,5.61,16.74,17.16c-0.49,5.71-2.94,11.78-4.72,17.59
	c-3.6,11.78-7.25,24.73,4.72,29.61c10.08,4.11,20.04-2.5,24.46-7.72c12.44-14.72,17.45-49.12,4.29-65.22
	c-7.16-8.77-20.45-12.42-31.32-12.45c-25.6-0.04-44.08,17.86-46.34,39.05c-0.9,8.46,0.65,17.25,4.29,22.74
	c0.63,0.95,3.06,2.22,3.43,5.15c0.55,4.28-2.24,9.55-4.29,12.44c-15.44-2.97-22.55-19.48-22.31-36.9
	c0.45-33.29,30.9-58.96,66.07-58.79c35.07,0.18,61.61,22.3,61.79,54.07C194.59,126.63,189.66,141.72,180.75,153.79z"/>
<g>
</g>
<g>
</g>
<g>
</g>
<g>
</g>
<g>
</g>
<g>
</g>
</svg>
