<?xml version="1.0" encoding="utf-8"?>
<!-- Generator: Adobe Illustrator 16.0.0, SVG Export Plug-In . SVG Version: 6.00 Build 0)  -->
<!DOCTYPE svg PUBLIC "-//W3C//DTD SVG 1.1//EN" "http://www.w3.org/Graphics/SVG/1.1/DTD/svg11.dtd">
<svg version="1.1" id="Layer_1" xmlns="http://www.w3.org/2000/svg" xmlns:xlink="http://www.w3.org/1999/xlink" x="0px" y="0px"
	 width="256px" height="256px" viewBox="0 0 256 256" enable-background="new 0 0 256 256" xml:space="preserve">
<g>
	<path opacity="0.7" fill="#010101" d="M121.16,24.81c12.49,9.34,24.85,18.7,24.85,18.7l21.73-17.23
		c-5.04-2.91-40.9-23.58-44.14-24.79c-3.49-1.3-9.7-3.37-3.49,2.07c6.21,5.44,13.58,12.69,13.58,12.69s-9.44-4.54-12.8-6.22
		c-3.36-1.68-6.21-1.29-0.52,3.37c5.69,4.66,9.18,8.94,9.18,8.94s-10.99-5.44-13.71-6.74c-2.72-1.29-4.91-1.42-0.26,3.5
		C117.28,20.89,119.29,22.93,121.16,24.81z"/>
	<g>
		<g>
			<path fill="#010101" d="M151.45,138.16c0.4-0.07,0.8-0.14,1.2-0.21C152.25,138.02,151.85,138.09,151.45,138.16z M148.56,138.62
				c0.97-0.14,1.94-0.3,2.89-0.47C150.5,138.33,149.54,138.49,148.56,138.62z M237.73,36.6c0,0-6.03-27.81-29.48-32.47
				c-10-1.99-19.31,5.36-19.31,5.36l-42.93,34.03c0,0-45.86-34.72-50.17-37.14c-4.31-2.42-7.67-2.16-3.45,2.07
				c4.22,4.23,11.55,12.96,11.55,12.96s-10.34-6.22-11.72-7.6c0,0-6.9-3.28-0.34,4.15c6.55,7.43,8.1,9.5,8.1,9.5
				s-8.45-5.35-11.38-7.25c-2.93-1.9-6.9-2.59,0.17,4.66c7.07,7.25,35.17,34.54,35.17,34.54S89.3,84.27,61.2,84.27
				C25.69,83.06,8.27,66.48,0,57.67c0,0,45.17,56.48,94.64,74.27c19.68,7.08,37.5,8.91,53.21,6.78
				c-8.21-10.98-1.33-31.66,15.92-47.05c17.81-15.88,39.93-20.1,49.41-9.42c2.23,2.51,3.55,5.62,4.05,9.11
				c8.5-11.94,15.23-25.17,19.28-39.04c7.24-2.59,19.48-7.6,19.48-7.6L237.73,36.6z M225.4,36.96c-1.42,6.06-6.22,10.11-10.7,9.05
				s-6.96-6.83-5.54-12.89c1.43-6.06,6.22-10.11,10.7-9.05C224.35,25.13,226.83,30.9,225.4,36.96z M148.56,138.62
				c-0.24,0.03-0.47,0.07-0.71,0.1c0,0,0.01,0.01,0.01,0.02C148.1,138.71,148.33,138.66,148.56,138.62z M152.65,137.95
				c1.32-0.25,2.62-0.53,3.9-0.83C155.27,137.42,153.97,137.69,152.65,137.95z"/>
		</g>
	</g>
	<path opacity="0.6" fill="#010101" d="M217.24,91.36c-0.5-3.49-1.82-6.6-4.05-9.11c-9.48-10.67-31.6-6.46-49.41,9.42
		c-17.26,15.39-24.13,36.09-15.91,47.06c15.89-2.15,29.62-8.35,40.9-17.33C199.38,112.97,209.12,102.76,217.24,91.36z"/>
</g>
<g>
</g>
<g>
</g>
<g>
</g>
<g>
</g>
<g>
</g>
<g>
</g>
</svg>
