<?xml version="1.0" encoding="utf-8"?>
<!-- Generator: Adobe Illustrator 16.0.0, SVG Export Plug-In . SVG Version: 6.00 Build 0)  -->
<!DOCTYPE svg PUBLIC "-//W3C//DTD SVG 1.1//EN" "http://www.w3.org/Graphics/SVG/1.1/DTD/svg11.dtd">
<svg version="1.1" id="Layer_1" xmlns="http://www.w3.org/2000/svg" xmlns:xlink="http://www.w3.org/1999/xlink" x="0px" y="0px"
	 width="256px" height="256px" viewBox="0 0 256 256" enable-background="new 0 0 256 256" xml:space="preserve">
<path fill="#010101" d="M126.62,0C56.69,0,0,56.69,0,126.62c0,69.93,56.69,126.62,126.62,126.62c69.93,0,126.62-56.69,126.62-126.62
	C253.23,56.69,196.54,0,126.62,0z M109.36,153.8c2.86,5.49,8.86,10.67,19.31,10.61h36.25c6.93,0.01,12.54,5.62,12.55,12.55v6.45
	c-0.01,6.93-5.62,12.54-12.55,12.55h-45.35l-0.08,0.01c0,0-0.1,0.01-0.36,0.02c-0.25,0.01-0.64,0.02-1.14,0.02
	c-3.9,0.01-14.65-0.73-24.25-7.67c-9.58-6.94-18.36-20-18.4-45.74c0-1.08,0.01-2.18,0.05-3.31l0-0.04V69.96
	c0.01-7.02,5.7-12.71,12.72-12.72h5.41c7.02,0.01,12.71,5.7,12.72,12.72V94.9h57.47c7.82,0.01,14.15,6.34,14.16,14.16
	c-0.01,7.82-6.34,14.15-14.16,14.16h-57.47v17.17c0,0.01,0,0.08-0.01,0.21c0,0.1,0,0.18,0,0.27
	C106.26,142.66,106.46,148.32,109.36,153.8z"/>
<g>
</g>
<g>
</g>
<g>
</g>
<g>
</g>
<g>
</g>
<g>
</g>
</svg>
