<?xml version="1.0" encoding="utf-8"?>
<!-- Generator: Adobe Illustrator 16.0.0, SVG Export Plug-In . SVG Version: 6.00 Build 0)  -->
<!DOCTYPE svg PUBLIC "-//W3C//DTD SVG 1.1//EN" "http://www.w3.org/Graphics/SVG/1.1/DTD/svg11.dtd">
<svg version="1.1" id="Layer_1" xmlns="http://www.w3.org/2000/svg" xmlns:xlink="http://www.w3.org/1999/xlink" x="0px" y="0px"
	 width="256px" height="256px" viewBox="0 0 256 256" enable-background="new 0 0 256 256" xml:space="preserve">
<path fill="#010101" d="M107.65,195.75c-1.18,1.47-2.47,2.68-3.87,3.62c-1.41,0.94-2.57,1.42-3.5,1.42c-1.18,0-2.03-0.36-2.55-1.07
	c-0.53-0.71-0.79-1.87-0.79-3.47v-51.6H84.4v56.26c0,3.99,0.73,6.98,2.2,8.98c1.47,1.99,3.66,2.99,6.55,2.99
	c2.35,0,4.78-0.72,7.28-2.14c2.5-1.43,4.9-3.51,7.21-6.24v7.37h12.48v-67.23h-12.48V195.75z M156.03,143.77
	c-1.93,0-3.84,0.54-5.73,1.61c-1.89,1.07-3.68,2.63-5.36,4.69v-29.3h-12.67v91.11h12.67v-5.17c1.64,2.06,3.41,3.58,5.32,4.57
	c1.91,0.99,4.08,1.48,6.52,1.48c3.7,0,6.52-1.27,8.47-3.81c1.95-2.54,2.93-6.21,2.93-11v-37.3c0-5.5-1.04-9.69-3.12-12.57
	C163,145.21,159.98,143.77,156.03,143.77z M155.28,196.13c0,2.14-0.36,3.68-1.07,4.63c-0.71,0.95-1.83,1.42-3.34,1.42
	c-1.05,0-2.05-0.24-2.99-0.72c-0.94-0.48-1.92-1.27-2.93-2.36v-41.9c0.84-0.92,1.69-1.61,2.55-2.05s1.73-0.66,2.61-0.66
	c1.68,0,2.96,0.59,3.84,1.77c0.88,1.18,1.32,2.9,1.32,5.17V196.13z M84.59,120.78H41.37v13.17h14.55v77.94h14.05v-77.94h14.62
	V120.78z M244,0H12C5.37,0,0,5.37,0,16v232c0,2.63,5.37,8,12,8h232c6.63,0,12-5.37,12-12V12C256,5.37,250.63,0,244,0z M151.34,35.63
	h12.04v39.19c0,1.26,0.23,2.1,0.59,2.54c0.34,0.44,0.91,0.69,1.86,0.69c0.65,0,1.62-0.34,2.82-1.09c1.15-0.72,2.21-1.63,3.18-2.74
	V35.63h11.99v52.53h-11.99v-5.31c-1.81,1.84-3.68,3.28-5.63,4.32c-2.26,1.2-4.48,1.82-6.65,1.82h-0.04c-2.64,0-4.74-0.88-6.13-2.65
	c-1.4-1.77-2.05-4.35-2.05-7.69V35.63z M104.38,48.77c-0.01-4.39,1.54-7.98,4.62-10.61c3.07-2.63,7.18-3.93,12.26-3.93
	c4.65,0,8.52,1.37,11.53,4.14c3.01,2.76,4.52,6.38,4.52,10.7v24.81c0,4.83-1.47,8.7-4.43,11.5c-2.96,2.8-7.03,4.18-12.11,4.18h-0.02
	c-4.9,0-8.89-1.43-11.88-4.31c-2.99-2.88-4.49-6.78-4.48-11.57V48.77z M71.02,16l8.05,29.94h0.01L86.75,16h13.68L85.8,60.4v27.77
	H72.43l0-26.37l-14.8-45.15L57.41,16H71.02z M231.35,205.09c0,17.51-14.19,31.7-31.7,31.7H55.7c-17.51,0-31.7-14.19-31.7-31.7
	v-73.55c0-17.51,14.19-31.7,31.7-31.7h143.94c17.51,0,31.7,14.19,31.7,31.7V205.09z M196.67,142.95c-5.59,0-10.14,1.84-13.67,5.51
	c-3.53,3.68-5.29,8.43-5.29,14.27v30.18c0,6.47,1.61,11.55,4.82,15.25c3.21,3.69,7.61,5.54,13.2,5.54c6.21,0,10.89-1.75,14.02-5.23
	c3.13-3.48,4.69-8.67,4.69-15.56v-5.04h-12.85v4.66c0,3.95-0.41,6.5-1.23,7.65c-0.82,1.16-2.26,1.73-4.32,1.73
	c-1.98,0-3.37-0.68-4.19-2.05c-0.82-1.36-1.23-3.81-1.23-7.34v-12.66h23.82v-17.14c0-6.38-1.53-11.28-4.6-14.68
	C206.77,144.66,202.38,142.95,196.67,142.95z M201.59,169.42h-10.96v-6.81c0-2.81,0.43-4.83,1.29-6.05
	c0.86-1.22,2.28-1.83,4.25-1.83c1.89,0,3.27,0.61,4.13,1.83c0.86,1.22,1.29,3.24,1.29,6.05V169.42z M120.77,78.99
	c1.39,0,2.41-0.38,3.18-1.13c0.76-0.74,1.15-1.74,1.16-3.14l0-26.37c-0.01-1.09-0.38-1.88-1.16-2.55c-0.78-0.66-1.82-1-3.18-1
	c-1.24,0-2.19,0.34-2.92,0.99c-0.73,0.66-1.08,1.46-1.09,2.55v26.37c0,1.44,0.36,2.47,1.03,3.18
	C118.46,78.62,119.41,78.99,120.77,78.99z"/>
<g>
</g>
<g>
</g>
<g>
</g>
<g>
</g>
<g>
</g>
<g>
</g>
</svg>
