<?xml version="1.0" encoding="utf-8"?>
<!-- Generator: Adobe Illustrator 16.0.0, SVG Export Plug-In . SVG Version: 6.00 Build 0)  -->
<!DOCTYPE svg PUBLIC "-//W3C//DTD SVG 1.1//EN" "http://www.w3.org/Graphics/SVG/1.1/DTD/svg11.dtd">
<svg version="1.1" id="Layer_1" xmlns="http://www.w3.org/2000/svg" xmlns:xlink="http://www.w3.org/1999/xlink" x="0px" y="0px"
	 width="256px" height="256px" viewBox="0 0 256 256" enable-background="new 0 0 256 256" xml:space="preserve">
<path fill="#010101" d="M121.24,82.52c1.14,0,1.98-0.31,2.61-0.92c0.62-0.61,0.94-1.43,0.95-2.57l0-21.6
	c-0.01-0.89-0.31-1.54-0.95-2.09c-0.64-0.54-1.49-0.82-2.61-0.82c-1.02,0-1.79,0.28-2.39,0.81c-0.6,0.54-0.88,1.2-0.89,2.1v21.6
	c0,1.18,0.3,2.02,0.85,2.61C119.36,82.21,120.13,82.52,121.24,82.52z M91.61,116.74h-35.4v10.79h11.92v63.84h11.51v-63.84h11.97
	V116.74z M150.13,135.58c-1.58,0-3.15,0.44-4.7,1.32c-1.55,0.88-3.01,2.16-4.38,3.84v-24h-10.37v74.62h10.37v-4.23
	c1.34,1.69,2.79,2.94,4.36,3.74c1.56,0.81,3.34,1.21,5.34,1.21c3.03,0,5.34-1.04,6.94-3.12c1.6-2.08,2.4-5.08,2.4-9.01v-30.55
	c0-4.51-0.85-7.94-2.55-10.3C155.83,136.76,153.37,135.58,150.13,135.58z M149.51,178.46c0,1.75-0.29,3.02-0.88,3.79
	c-0.58,0.77-1.5,1.16-2.74,1.16c-0.86,0-1.68-0.2-2.45-0.59c-0.77-0.4-1.57-1.04-2.4-1.94v-34.32c0.69-0.76,1.38-1.32,2.09-1.68
	c0.71-0.36,1.42-0.54,2.14-0.54c1.38,0,2.43,0.48,3.15,1.45c0.72,0.96,1.08,2.37,1.08,4.23V178.46z M110.5,178.16
	c-0.96,1.21-2.02,2.19-3.17,2.97c-1.15,0.77-2.11,1.16-2.86,1.16c-0.96,0-1.66-0.29-2.09-0.88c-0.43-0.58-0.64-1.53-0.64-2.84V136.3
	H91.46v46.08c0,3.27,0.6,5.72,1.81,7.35c1.2,1.63,2.99,2.45,5.36,2.45c1.93,0,3.92-0.58,5.96-1.75c2.04-1.17,4.02-2.87,5.91-5.11
	v6.04h10.22V136.3H110.5V178.16z M126.62,0C56.69,0,0,56.69,0,126.62s56.69,126.62,126.62,126.62
	c69.93,0,126.62-56.69,126.62-126.62S196.54,0,126.62,0z M146.29,47.01h9.86v32.1c0,1.03,0.19,1.72,0.48,2.08
	c0.28,0.36,0.74,0.56,1.53,0.57c0.54,0,1.33-0.28,2.31-0.89c0.94-0.59,1.81-1.34,2.61-2.25V47.01h9.82v43.03h-9.82v-4.35
	c-1.48,1.51-3.02,2.69-4.61,3.54c-1.85,0.99-3.67,1.49-5.45,1.49h-0.03c-2.16,0-3.88-0.72-5.02-2.17c-1.14-1.45-1.68-3.56-1.68-6.3
	V47.01z M107.83,57.76c0-3.6,1.26-6.54,3.78-8.69c2.51-2.16,5.88-3.22,10.04-3.22c3.81,0,6.98,1.13,9.44,3.39
	c2.46,2.26,3.7,5.22,3.7,8.76v20.32c0,3.95-1.2,7.13-3.63,9.42c-2.42,2.29-5.76,3.42-9.92,3.42h-0.02c-4.01,0-7.28-1.17-9.73-3.53
	c-2.45-2.36-3.67-5.55-3.67-9.48V57.76z M80.5,30.92l6.6,24.53h0.01l6.28-24.53h11.2L92.6,67.29v22.74H81.65l0-21.6L69.52,31.46
	l-0.17-0.53H80.5z M211.82,185.8c0,14.34-11.63,25.97-25.97,25.97H67.95c-14.34,0-25.97-11.62-25.97-25.97v-60.24
	c0-14.34,11.63-25.97,25.97-25.97h117.9c14.34,0,25.97,11.63,25.97,25.97V185.8z M183.42,134.91c-4.58,0-8.31,1.51-11.2,4.52
	c-2.89,3.01-4.33,6.91-4.33,11.69v24.72c0,5.3,1.32,9.46,3.95,12.49c2.63,3.03,6.24,4.54,10.81,4.54c5.09,0,8.92-1.43,11.48-4.28
	c2.56-2.85,3.85-7.1,3.85-12.75v-4.13h-10.53v3.82c0,3.23-0.33,5.32-1.01,6.27c-0.67,0.95-1.85,1.42-3.54,1.42
	c-1.62,0-2.76-0.56-3.43-1.68c-0.67-1.12-1.01-3.12-1.01-6.01v-10.38h19.51v-14.03c0-5.23-1.26-9.24-3.77-12.03
	C191.69,136.3,188.1,134.91,183.42,134.91z M187.44,156.58h-8.98v-5.57c0-2.3,0.35-3.96,1.06-4.95c0.7-1,1.87-1.5,3.48-1.5
	c1.55,0,2.67,0.5,3.38,1.5c0.71,1,1.06,2.65,1.06,4.95V156.58z"/>
<g>
</g>
<g>
</g>
<g>
</g>
<g>
</g>
<g>
</g>
<g>
</g>
</svg>
