<?xml version="1.0" encoding="utf-8"?>
<!-- Generator: Adobe Illustrator 16.0.0, SVG Export Plug-In . SVG Version: 6.00 Build 0)  -->
<!DOCTYPE svg PUBLIC "-//W3C//DTD SVG 1.1//EN" "http://www.w3.org/Graphics/SVG/1.1/DTD/svg11.dtd">
<svg version="1.1" id="Layer_1" xmlns="http://www.w3.org/2000/svg" xmlns:xlink="http://www.w3.org/1999/xlink" x="0px" y="0px"
	 width="256px" height="256px" viewBox="0 0 256 256" enable-background="new 0 0 256 256" xml:space="preserve">
<g>
	<g>
		<path fill="#010101" d="M55.98,83.43l0-30.48L38.87,0.75l0.54-0.18l-0.54,0.18L38.62,0h15.74l9.31,34.62h0.02L72.55,0h15.82
			L71.45,51.33v32.1H55.98L55.98,83.43z"/>
	</g>
	<g>
		<path fill="#010101" d="M98.11,80.06c-3.46-3.32-5.19-7.83-5.19-13.38l0,0v-28.8c-0.01-5.08,1.79-9.23,5.34-12.26l0,0
			c3.55-3.04,8.31-4.54,14.18-4.54l0,0c5.38,0,9.85,1.59,13.33,4.79l0,0c3.48,3.19,5.23,7.37,5.23,12.37l0,0v28.68
			c0.01,5.58-1.7,10.06-5.13,13.29l0,0c-3.42,3.24-8.13,4.83-14,4.83l0,0c-0.01,0-0.02,0-0.02,0l0,0
			C106.18,85.05,101.57,83.39,98.11,80.06L98.11,80.06z M108.43,71.57c0.78,0.82,1.87,1.25,3.44,1.25l0,0c1.61,0,2.79-0.44,3.68-1.3
			l0,0c0.88-0.86,1.33-2.02,1.34-3.63l0,0l0-30.49c-0.01-1.25-0.43-2.17-1.34-2.94l0,0c-0.91-0.76-2.1-1.15-3.68-1.16l0,0
			c-1.44,0-2.53,0.39-3.37,1.14l0,0c-0.84,0.76-1.25,1.69-1.25,2.95l0,0v30.49C107.24,69.55,107.66,70.74,108.43,71.57L108.43,71.57
			z"/>
	</g>
	<g>
		<path fill="#010101" d="M149.59,81.33c-1.62-2.05-2.37-5.03-2.37-8.89l0,0V22.7h13.92v45.31c0,1.46,0.27,2.43,0.68,2.94l0,0
			c0.4,0.51,1.05,0.79,2.15,0.8l0,0c0.76,0,1.87-0.39,3.26-1.26l0,0c1.33-0.83,2.55-1.88,3.68-3.17l0,0V22.7h13.29v0.57V22.7h0.57
			v60.73h-13.86v-6.14c-2.09,2.12-4.26,3.79-6.51,4.99l0,0c-2.61,1.39-5.18,2.1-7.69,2.1l0,0c-0.01,0-0.03,0-0.04,0l0,0
			C153.62,84.39,151.19,83.37,149.59,81.33L149.59,81.33z"/>
	</g>
	<path fill="#010101" d="M199.04,160.39c-2.28,0-3.92,0.71-4.92,2.11c-1,1.41-1.49,3.74-1.49,6.99v7.87h12.67v-7.87
		c0-3.25-0.5-5.58-1.49-6.99C202.81,161.09,201.22,160.39,199.04,160.39z M145.79,160.09c-1.02,0-2.03,0.25-3.02,0.76
		c-1,0.51-1.98,1.3-2.95,2.37v48.44c1.16,1.26,2.29,2.17,3.39,2.73c1.09,0.56,2.25,0.84,3.46,0.84c1.75,0,3.03-0.55,3.86-1.64
		c0.82-1.09,1.24-2.88,1.24-5.35v-40.13c0-2.62-0.51-4.61-1.53-5.97C149.22,160.78,147.73,160.09,145.79,160.09z M239.71,133.58
		c0-20.24-16.41-36.65-36.65-36.65H36.65C16.41,96.93,0,113.34,0,133.58v85.02c0,20.24,16.41,36.65,36.65,36.65h166.41
		c20.24,0,36.65-16.41,36.65-36.65V133.58z M53.14,226.45H36.9v-90.1H20.08v-15.22h49.97v15.22h-16.9V226.45z M111.12,226.45H96.7
		v-8.52c-2.67,3.16-5.45,5.56-8.34,7.21c-2.89,1.65-5.69,2.48-8.41,2.48c-3.35,0-5.88-1.16-7.57-3.46
		c-1.7-2.31-2.55-5.77-2.55-10.38v-65.04h14.5v59.65c0,1.84,0.3,3.18,0.91,4.01s1.59,1.24,2.95,1.24c1.07,0,2.42-0.54,4.04-1.64
		c1.63-1.09,3.12-2.49,4.48-4.19v-59.07h14.42V226.45z M166.7,210.35c0,5.54-1.13,9.77-3.39,12.71c-2.26,2.94-5.52,4.41-9.79,4.41
		c-2.82,0-5.33-0.57-7.54-1.71c-2.21-1.14-4.26-2.9-6.16-5.28v5.97h-14.64V121.13h14.64V155c1.94-2.38,4-4.19,6.19-5.43
		c2.19-1.24,4.39-1.85,6.63-1.85c4.56,0,8.05,1.66,10.45,4.99c2.4,3.32,3.61,8.17,3.61,14.53V210.35z M220.16,189.45h-27.53v14.64
		c0,4.08,0.47,6.91,1.42,8.49c0.95,1.58,2.56,2.37,4.84,2.37c2.38,0,4.04-0.67,4.99-2c0.95-1.33,1.42-4.29,1.42-8.85v-5.39h14.86
		v5.83c0,7.97-1.81,13.96-5.43,17.99c-3.62,4.03-9.02,6.05-16.21,6.05c-6.46,0-11.54-2.14-15.26-6.41
		c-3.71-4.27-5.57-10.15-5.57-17.62v-34.89c0-6.75,2.04-12.25,6.12-16.5c4.08-4.25,9.35-6.37,15.8-6.37c6.6,0,11.68,1.97,15.22,5.9
		c3.54,3.93,5.32,9.59,5.32,16.97V189.45z"/>
</g>
<g>
</g>
<g>
</g>
<g>
</g>
<g>
</g>
<g>
</g>
<g>
</g>
</svg>
