<?xml version="1.0" encoding="utf-8"?>
<!-- Generator: Adobe Illustrator 16.0.0, SVG Export Plug-In . SVG Version: 6.00 Build 0)  -->
<!DOCTYPE svg PUBLIC "-//W3C//DTD SVG 1.1//EN" "http://www.w3.org/Graphics/SVG/1.1/DTD/svg11.dtd">
<svg version="1.1" id="Layer_1" xmlns="http://www.w3.org/2000/svg" xmlns:xlink="http://www.w3.org/1999/xlink" x="0px" y="0px"
	 width="256px" height="256px" viewBox="0 0 256 256" style="enable-background:new 0 0 256 256;" xml:space="preserve">
<path style="fill:#010101;" d="M126.62,0C56.69,0,0,56.69,0,126.62s56.69,126.62,126.62,126.62c69.93,0,126.62-56.69,126.62-126.62
	S196.54,0,126.62,0z M159.18,124.59h-22.97v78.53h-31.5v-78.53H88.53V98.78h16.19V82.81c0-21.88,10.52-34.36,36.33-34.36
	c8.97,0,10.6,0,19.73,0v26.47c-4.38,0-10.12,0.02-13.84,0.02c-10.06,0-10.72,4.38-10.72,11.38v12.47h25.16L159.18,124.59z"/>
<g>
</g>
<g>
</g>
<g>
</g>
<g>
</g>
<g>
</g>
<g>
</g>
</svg>
