<?xml version="1.0" encoding="utf-8"?>
<!-- Generator: Adobe Illustrator 16.0.0, SVG Export Plug-In . SVG Version: 6.00 Build 0)  -->
<!DOCTYPE svg PUBLIC "-//W3C//DTD SVG 1.1 Tiny//EN" "http://www.w3.org/Graphics/SVG/1.1/DTD/svg11-tiny.dtd">
<svg version="1.1" baseProfile="tiny" id="Layer_1" xmlns="http://www.w3.org/2000/svg" xmlns:xlink="http://www.w3.org/1999/xlink"
	 x="0px" y="0px" width="256px" height="256px" viewBox="0 0 256 256" xml:space="preserve">
<path fill="#010101" d="M244,0H12C5.37,0,0,5.37,0,12v232c0,6.63,5.37,12,12,12h232c6.63,0,12-5.37,12-12V12
	C256,5.37,250.63,0,244,0z M207.71,126.52H179.2V224h-39.1v-97.48H120V94.48h20.09V74.66c0-27.15,13.05-42.65,45.09-42.65
	c11.13,0,13.16,0,24.49,0v32.85c-5.43,0-12.56,0.02-17.18,0.02c-12.49,0-13.3,5.43-13.3,14.12v15.48h31.23L207.71,126.52z"/>
<g>
</g>
<g>
</g>
<g>
</g>
<g>
</g>
<g>
</g>
<g>
</g>
</svg>
