<?xml version="1.0" encoding="utf-8"?>
<!-- Generator: Adobe Illustrator 16.0.0, SVG Export Plug-In . SVG Version: 6.00 Build 0)  -->
<!DOCTYPE svg PUBLIC "-//W3C//DTD SVG 1.1 Tiny//EN" "http://www.w3.org/Graphics/SVG/1.1/DTD/svg11-tiny.dtd">
<svg version="1.1" baseProfile="tiny" id="Layer_1" xmlns="http://www.w3.org/2000/svg" xmlns:xlink="http://www.w3.org/1999/xlink"
	 x="0px" y="0px" width="256px" height="256px" viewBox="0 0 256 256" xml:space="preserve">
<path fill="#010101" d="M188.33,232.66v-11.89c-0.02-12.78-10.36-23.12-23.14-23.15H98.35c-19.28,0.12-30.34-9.42-35.61-19.55
	c-5.37-10.1-5.73-20.54-5.74-23.83c0-0.15,0-0.3,0.01-0.49c0-0.24,0.01-0.37,0.01-0.39v-31.66h105.98
	c14.42-0.03,26.09-11.69,26.11-26.12c-0.03-14.42-11.69-26.09-26.11-26.11H57V23.46C56.98,10.51,46.5,0.03,33.54,0h-9.99
	C10.6,0.03,0.11,10.51,0.09,23.46v127.78l0,0.07c-0.06,2.08-0.09,4.11-0.09,6.1c0.07,47.47,16.26,71.54,33.93,84.34
	c17.71,12.79,37.53,14.15,44.72,14.14c0.92,0,1.63-0.02,2.1-0.04c0.47-0.02,0.66-0.04,0.66-0.04l0.14-0.01h83.64
	C177.97,255.78,188.31,245.44,188.33,232.66z"/>
<g>
</g>
<g>
</g>
<g>
</g>
<g>
</g>
<g>
</g>
<g>
</g>
</svg>
