<?xml version="1.0" encoding="utf-8"?>
<!-- Generator: Adobe Illustrator 16.0.0, SVG Export Plug-In . SVG Version: 6.00 Build 0)  -->
<!DOCTYPE svg PUBLIC "-//W3C//DTD SVG 1.1//EN" "http://www.w3.org/Graphics/SVG/1.1/DTD/svg11.dtd">
<svg version="1.1" id="Layer_1" xmlns="http://www.w3.org/2000/svg" xmlns:xlink="http://www.w3.org/1999/xlink" x="0px" y="0px"
	 width="256px" height="256px" viewBox="0 0 256 256" style="enable-background:new 0 0 256 256;" xml:space="preserve">
<g>
	<path d="M177.757,135.697c-0.347-32.345,27.004-47.855,28.209-48.625c-15.352-21.954-39.266-24.96-47.772-25.307
		c-20.381-2.016-39.737,11.708-50.059,11.708c-10.294,0-26.228-11.41-43.131-11.112C42.821,62.681,22.371,74.963,10.94,94.388
		c-23.055,39.072-5.888,96.965,16.571,128.652c10.974,15.518,24.066,32.947,41.247,32.324c16.557-0.651,22.819-10.475,42.798-10.475
		c20.035,0,25.646,10.475,43.173,10.156c17.804-0.333,29.109-15.823,40-31.382c12.608-17.984,17.804-35.428,18.081-36.314
		C212.45,187.183,178.104,174.325,177.757,135.697z"/>
	<path d="M144.837,40.783C153.968,29.969,160.119,14.963,158.456,0c-13.135,0.526-29.082,8.556-38.503,19.342
		c-8.466,9.581-15.864,24.849-13.897,39.515C120.729,59.972,135.706,51.569,144.837,40.783z"/>
</g>
</svg>
